<svg width="16" height="16" viewBox="0 0 40 40" fill="none" xmlns="http://www.w3.org/2000/svg">
    <!-- Terminal frame -->
    <rect x="4" y="4" width="32" height="32" rx="3" stroke="url(#gradient)" stroke-width="2" fill="none"/>

    <!-- Left brace { -->
    <path d="M 13 15 C 13 15, 11 15, 11 17 L 11 19 C 11 19.5, 9 20, 11 20.5 L 11 23 C 11 25, 13 25, 13 25" stroke="url(#gradient)" stroke-width="1.8" fill="none" stroke-linecap="round"/>

    <!-- Stylized T -->
    <path d="M17 17 L23 17 M20 17 L20 24" stroke="url(#gradient)" stroke-width="2.5" stroke-linecap="round" stroke-linejoin="round"/>

    <!-- Right brace } -->
    <path d="M 27 15 C 27 15, 29 15, 29 17 L 29 19 C 29 19.5, 31 20, 29 20.5 L 29 23 C 29 25, 27 25, 27 25" stroke="url(#gradient)" stroke-width="1.8" fill="none" stroke-linecap="round"/>

    <defs>
        <linearGradient id="gradient" x1="4" y1="4" x2="36" y2="36" gradientUnits="userSpaceOnUse">
            <stop offset="0%" stop-color="#3BEA62"/>
            <stop offset="50%" stop-color="#3C99CC"/>
            <stop offset="100%" stop-color="#6B57FF"/>
        </linearGradient>
    </defs>
</svg>
